<svg width="441" height="487" viewBox="0 0 441 487" fill="none" xmlns="http://www.w3.org/2000/svg">
<g filter="url(#filter0_dddd_8_21)">
<path fill-rule="evenodd" clip-rule="evenodd" d="M122.405 394C122.167 394.353 121.657 394.75 121.827 394.75C124.588 394.75 145.534 383.092 151.591 378.182C166.375 366.202 176.808 348.863 180.912 329.46C182.698 321.011 183.551 312.992 182.405 304.374C182.19 299.72 181.255 295.793 180.506 292.995C179.614 289.654 177.136 282.48 175.001 277.053C172.576 270.888 171.727 264.386 171.454 258.174C171.474 256.574 171.09 255.015 171.202 252.967C171.336 250.512 171.969 248.175 172.209 246.241C173.561 238.406 176.585 230.966 181.097 224.419C186.347 217.246 193.725 210.74 201.59 206.475C202.556 205.974 203.438 205.525 204.262 205.123C204.316 205.098 203.909 205.275 203.963 205.25C205.214 204.667 206.81 203.963 207.892 203.531C212.18 201.929 215.482 201.932 224.685 201.916C237.974 201.893 239.946 202.293 249.28 206.883C260.899 212.598 269.626 221.579 275.779 234.155C279.531 241.824 279.713 243.029 278.056 249.226C274.426 262.799 266.638 269.068 251.002 271.007C238.425 272.567 230.747 277.491 226.181 286.921C219.277 301.185 224.76 316.325 239.458 323.577C250.077 328.818 256.558 327.856 273.783 317.754L272.736 319.007L278.372 315.588C309.656 296.61 368.056 253.805 383.66 238.415C386.555 235.56 389.271 232.94 391.09 230.675C391.412 230.282 391.705 229.906 391.967 229.55C394.443 226.273 395.58 223.428 396.946 219.699C397.85 217.231 399.013 214.509 399.52 211.965C397.848 218.269 395.164 224.885 392.361 228.995C392.238 229.174 392.107 229.36 391.967 229.55C391.686 229.922 391.394 230.296 391.09 230.675C378.529 246.01 320.85 289.251 277.796 315.357C276.393 316.208 275.057 317.007 273.783 317.754L276.938 312.108C286.74 294.572 285.553 271.913 281.679 253.5C277.179 231 268.679 217.5 249.28 206.883C240.092 202.36 237.616 201.893 225.179 201.916C215.533 201.932 213.178 201.423 207.892 203.531C206.756 203.956 205.583 204.479 204.262 205.123C203.367 205.544 202.476 205.995 201.59 206.475L201.429 206.559C192.978 210.954 186.116 217.135 181.097 224.419C179.369 226.779 177.872 229.211 176.664 231.659C174.164 236.726 172.906 240.633 172.209 246.241C171.536 250.141 171.277 254.139 171.454 258.174C171.75 265.327 172.835 269.853 176.44 280.884C180.045 291.914 182.299 297.047 182.405 304.374C183.686 315.003 182.869 327.235 180.346 333.481C173.204 360.901 152.186 382.6 122.405 394Z" fill="#007D00"/>
<path d="M77.8136 2.81088C62.0468 7.98097 50.9808 17.7685 44.2194 32.5226C41.0764 39.3796 40.343 43.3653 40.2701 53.9803L40.179 67.0187L57.1242 100.291C82.1987 149.532 99.1909 188.971 112.653 229.171C117.954 245.002 118.644 248.619 118.025 257.261C116.229 282.258 96.8359 302.785 70.5467 307.512C57.0801 309.934 50.7166 314.761 45.0652 326.838C30.5737 357.807 49.9847 394.623 83.8644 400.426C92.5799 401.919 95.4056 401.726 107.093 398.841C112.251 397.568 117.669 395.813 122.405 394C123.158 392.88 125.79 390.167 129.235 387.018C134.847 381.891 138.814 376.501 141.679 370.116C148.178 355.635 147.625 345.74 138.202 308C119.638 236.298 99.1385 186.298 64.1384 113.109C43.0405 71.4793 40.1371 72.7774 40.1792 61.7774C39.2803 47.5 41.6384 34.7977 50.1209 22.7977C55.7313 14.3282 70.1348 6.08078 81.0049 3.32036C92.4094 0.423291 104.06 2.14665 123.204 9.56546C177.191 30.4842 234.536 59.581 285.889 92.1138C322.326 115.195 375.288 154.937 388.019 168.748C398.407 180.017 402.615 196.443 399.52 211.965C400.597 207.907 400.795 204.181 400.795 201.133C400.795 193.35 396.508 179.824 391.901 173.069C387.002 165.885 374.133 154.831 345.7 133.387C278.389 82.617 204.151 41.0574 124.449 9.52973C103.008 1.04805 89.2364 -0.934964 77.8136 2.81088Z" fill="#007D00"/>
<path d="M81.0049 3.32036C70.1348 6.08078 55.7313 14.3282 50.1209 22.7977C41.6384 34.7977 39.2803 47.5 40.1792 61.7774C40.1371 72.7774 43.0405 71.4793 64.1384 113.109C99.1385 186.298 119.638 236.298 138.202 308C147.625 345.74 148.178 355.635 141.679 370.116C138.814 376.501 134.847 381.891 129.235 387.018C125.79 390.167 123.158 392.88 122.405 394C152.186 382.6 173.204 360.901 180.346 333.481C182.869 327.235 183.686 315.003 182.405 304.374C182.299 297.047 180.045 291.914 176.44 280.884C172.835 269.853 171.75 265.327 171.454 258.174C171.277 254.139 171.536 250.141 172.209 246.241C172.906 240.633 174.164 236.726 176.664 231.659C177.872 229.211 179.369 226.779 181.097 224.419C186.116 217.135 192.978 210.954 201.429 206.559L201.59 206.475C202.476 205.995 203.367 205.544 204.262 205.123C205.583 204.479 206.756 203.956 207.892 203.531C213.178 201.423 215.533 201.932 225.179 201.916C237.616 201.893 240.092 202.36 249.28 206.883C268.679 217.5 277.179 231 281.679 253.5C285.553 271.913 286.74 294.572 276.938 312.108L273.783 317.754C275.057 317.007 276.393 316.208 277.796 315.357C320.85 289.251 378.529 246.01 391.09 230.675C391.394 230.296 391.686 229.922 391.967 229.55C392.107 229.36 392.238 229.174 392.361 228.995C395.164 224.885 397.848 218.269 399.52 211.965C402.615 196.443 398.407 180.017 388.019 168.748C375.288 154.937 322.326 115.195 285.889 92.1138C234.536 59.581 177.191 30.4842 123.204 9.56546C104.06 2.14665 92.4094 0.423291 81.0049 3.32036Z" fill="#01DF01"/>
</g>
<defs>
<filter id="filter0_dddd_8_21" x="0.200001" y="0" width="440.395" height="486.144" filterUnits="userSpaceOnUse" color-interpolation-filters="sRGB">
<feFlood flood-opacity="0" result="BackgroundImageFix"/>
<feColorMatrix in="SourceAlpha" type="matrix" values="0 0 0 0 0 0 0 0 0 0 0 0 0 0 0 0 0 0 127 0" result="hardAlpha"/>
<feOffset dy="9"/>
<feGaussianBlur stdDeviation="4.2"/>
<feComposite in2="hardAlpha" operator="out"/>
<feColorMatrix type="matrix" values="0 0 0 0 1 0 0 0 0 1 0 0 0 0 1 0 0 0 0.8 0"/>
<feBlend mode="normal" in2="BackgroundImageFix" result="effect1_dropShadow_8_21"/>
<feColorMatrix in="SourceAlpha" type="matrix" values="0 0 0 0 0 0 0 0 0 0 0 0 0 0 0 0 0 0 127 0" result="hardAlpha"/>
<feOffset dy="16"/>
<feGaussianBlur stdDeviation="8"/>
<feComposite in2="hardAlpha" operator="out"/>
<feColorMatrix type="matrix" values="0 0 0 0 1 0 0 0 0 1 0 0 0 0 1 0 0 0 0.45 0"/>
<feBlend mode="normal" in2="effect1_dropShadow_8_21" result="effect2_dropShadow_8_21"/>
<feColorMatrix in="SourceAlpha" type="matrix" values="0 0 0 0 0 0 0 0 0 0 0 0 0 0 0 0 0 0 127 0" result="hardAlpha"/>
<feOffset dy="31"/>
<feGaussianBlur stdDeviation="16"/>
<feComposite in2="hardAlpha" operator="out"/>
<feColorMatrix type="matrix" values="0 0 0 0 1 0 0 0 0 1 0 0 0 0 1 0 0 0 0.25 0"/>
<feBlend mode="normal" in2="effect2_dropShadow_8_21" result="effect3_dropShadow_8_21"/>
<feColorMatrix in="SourceAlpha" type="matrix" values="0 0 0 0 0 0 0 0 0 0 0 0 0 0 0 0 0 0 127 0" result="hardAlpha"/>
<feOffset dy="45"/>
<feGaussianBlur stdDeviation="19.9"/>
<feComposite in2="hardAlpha" operator="out"/>
<feColorMatrix type="matrix" values="0 0 0 0 1 0 0 0 0 1 0 0 0 0 1 0 0 0 0.1 0"/>
<feBlend mode="normal" in2="effect3_dropShadow_8_21" result="effect4_dropShadow_8_21"/>
<feBlend mode="normal" in="SourceGraphic" in2="effect4_dropShadow_8_21" result="shape"/>
</filter>
</defs>
</svg>
