<?xml version="1.0" encoding="UTF-8"?>
<svg xmlns="http://www.w3.org/2000/svg" version="1.1" viewBox="0 0 441 487">
  <defs>
    <style>
      .cls-1 {
        fill-rule: evenodd;
      }

      .cls-1, .cls-2 {
        fill: #007d00;
      }

      .cls-3 {
        fill: #01df01;
      }
    </style>
  </defs>
  <!-- Generator: Adobe Illustrator 28.7.1, SVG Export Plug-In . SVG Version: 1.2.0 Build 142)  -->
  <g>
    <g id="_Слой_1" data-name="Слой_1">
      <g>
        <path class="cls-1" d="M100.7,478.6c-.3.4-.9.9-.7.9,3.4,0,29-14.3,36.4-20.3,18.1-14.6,30.8-35.8,35.8-59.6,2.2-10.3,3.2-20.1,1.8-30.7-.3-5.7-1.4-10.5-2.3-13.9-1.1-4.1-4.1-12.9-6.7-19.5-3-7.5-4-15.5-4.3-23.1,0-2-.4-3.9-.3-6.4.2-3,.9-5.9,1.2-8.2,1.7-9.6,5.3-18.7,10.9-26.7,6.4-8.8,15.4-16.7,25.1-21.9,1.2-.6,2.3-1.2,3.3-1.7,0,0-.4.2-.4.2,1.5-.7,3.5-1.6,4.8-2.1,5.2-2,9.3-2,20.5-2,16.2,0,18.7.5,30.1,6.1,14.2,7,24.9,18,32.4,33.3,4.6,9.4,4.8,10.8,2.8,18.4-4.4,16.6-14,24.3-33.1,26.6-15.4,1.9-24.8,7.9-30.3,19.5-8.4,17.4-1.7,35.9,16.2,44.8,13,6.4,20.9,5.2,42-7.1l-1.3,1.5,6.9-4.2c38.2-23.2,109.6-75.5,128.7-94.3,3.5-3.5,6.9-6.7,9.1-9.5.4-.5.8-.9,1.1-1.4,3-4,4.4-7.5,6.1-12,1.1-3,2.5-6.3,3.1-9.5-2,7.7-5.3,15.8-8.8,20.8-.2.2-.3.4-.5.7-.3.5-.7.9-1.1,1.4-15.4,18.7-85.9,71.6-138.5,103.5-1.7,1-3.3,2-4.9,2.9l3.9-6.9c12-21.4,10.5-49.1,5.8-71.6-5.5-27.5-15.9-44-39.6-57-11.2-5.5-14.3-6.1-29.5-6.1-11.8,0-14.7-.6-21.1,2-1.4.5-2.8,1.2-4.4,1.9-1.1.5-2.2,1.1-3.3,1.7h-.2c-10.3,5.5-18.7,13-24.9,21.9-2.1,2.9-3.9,5.9-5.4,8.9-3.1,6.2-4.6,11-5.4,17.8-.8,4.8-1.1,9.7-.9,14.6.4,8.7,1.7,14.3,6.1,27.8,4.4,13.5,7.2,19.8,7.3,28.7,1.6,13,.6,27.9-2.5,35.6-8.7,33.5-34.4,60-70.8,74Z"/>
        <path class="cls-2" d="M46.2.3C27,6.7,13.4,18.6,5.2,36.7,1.3,45,.4,49.9.3,62.9v15.9c-.1,0,20.6,40.7,20.6,40.7,30.7,60.2,51.4,108.4,67.9,157.6,6.5,19.4,7.3,23.8,6.6,34.3-2.2,30.6-25.9,55.7-58,61.4-16.5,3-24.2,8.9-31.2,23.6-17.7,37.9,6,82.9,47.4,90,10.7,1.8,14.1,1.6,28.4-1.9,6.3-1.6,12.9-3.7,18.7-5.9.9-1.4,4.1-4.7,8.3-8.5,6.9-6.3,11.7-12.9,15.2-20.7,7.9-17.7,7.3-29.8-4.3-75.9-22.7-87.7-47.8-148.8-90.5-238.3C3.7,84.3.2,85.9.2,72.4c-1.1-17.5,1.8-33,12.2-47.7C19.2,14.4,36.8,4.3,50.1,1c13.9-3.5,28.2-1.4,51.6,7.6,66,25.6,136.1,61.1,198.9,100.9,44.5,28.2,109.3,76.8,124.9,93.7,12.7,13.8,17.8,33.9,14.1,52.8,1.3-5,1.6-9.5,1.6-13.2,0-9.5-5.2-26-10.9-34.3-6-8.8-21.7-22.3-56.5-48.5C291.4,97.9,200.7,47.1,103.2,8.5,77-1.8,60.2-4.2,46.2.3Z"/>
        <path class="cls-3" d="M50.1,1c-13.3,3.4-30.9,13.5-37.8,23.8C2,39.4-.9,55,.2,72.4c0,13.4,3.5,11.9,29.3,62.8,42.8,89.5,67.8,150.6,90.5,238.3,11.5,46.1,12.2,58.2,4.3,75.9-3.5,7.8-8.4,14.4-15.2,20.7-4.2,3.8-7.4,7.2-8.3,8.5,36.4-13.9,62.1-40.5,70.8-74,3.1-7.6,4.1-22.6,2.5-35.6-.1-9-2.9-15.2-7.3-28.7-4.4-13.5-5.7-19-6.1-27.8-.2-4.9.1-9.8.9-14.6.9-6.9,2.4-11.6,5.4-17.8,1.5-3,3.3-6,5.4-8.9,6.1-8.9,14.5-16.5,24.9-21.8h.2c1.1-.7,2.2-1.2,3.3-1.8,1.6-.8,3-1.4,4.4-1.9,6.5-2.6,9.3-2,21.1-2,15.2,0,18.2.5,29.5,6.1,23.7,13,34.1,29.5,39.6,57,4.7,22.5,6.2,50.2-5.8,71.6l-3.9,6.9c1.6-.9,3.2-1.9,4.9-2.9,52.6-31.9,123.1-84.8,138.5-103.5.4-.5.7-.9,1.1-1.4.2-.2.3-.5.5-.7,3.4-5,6.7-13.1,8.8-20.8,3.8-19-1.4-39.1-14.1-52.8-15.6-16.9-80.3-65.5-124.9-93.7C237.8,69.7,167.7,34.2,101.7,8.6,78.3-.5,64.1-2.6,50.1,1Z"/>
      </g>
    </g>
  </g>
</svg>